<svg xmlns="http://www.w3.org/2000/svg"  viewBox="0 0 50 50" width="50px" height="50px"><path d="M 10.416016 0.048828125 C 9.7747182 0.080585955 9.1452357 0.35368617 8.6855469 0.86132812 C 7.8122474 1.8242819 7.8375164 3.3015226 8.703125 4.2402344 L 8.7050781 4.2402344 L 8.7070312 4.2421875 C 9.0281793 4.5879829 9.3361146 4.9322903 9.6328125 5.2773438 L 9.5996094 5.3007812 A 1.50015 1.50015 0 1 0 11.400391 7.6992188 L 11.462891 7.6523438 C 11.652089 7.9280944 11.840257 8.2045208 12.019531 8.4902344 L 12.019531 8.4921875 C 12.19808 8.775102 12.365929 9.0643747 12.533203 9.3535156 A 1.50015 1.50015 0 0 0 13.861328 11.970703 C 14.04233 12.384586 14.214137 12.80104 14.373047 13.222656 C 14.429461 13.372566 14.47767 13.524959 14.53125 13.675781 L 14.25 13.863281 A 1.50015 1.50015 0 0 0 15.378906 16.589844 C 15.506383 17.149 15.621269 17.711005 15.710938 18.275391 C 15.785936 18.762137 15.835275 19.254294 15.884766 19.746094 C 13.48985 22.10545 12 25.381029 12 29 L 12 49 A 1.0001 1.0001 0 1 0 14 49 L 14 29 C 14 25.83013 15.339499 22.985636 17.476562 20.980469 A 1.0001 1.0001 0 0 0 17.724609 20.755859 C 19.662922 19.04474 22.204045 18 25 18 C 27.790459 18 30.326777 19.040984 32.263672 20.746094 A 1.0001 1.0001 0 0 0 32.537109 20.994141 C 34.66595 22.998611 36 25.837094 36 29 L 36 49 A 1.0001 1.0001 0 1 0 38 49 L 38 29 C 38 25.381029 36.51015 22.10545 34.115234 19.746094 C 34.164732 19.254245 34.214084 18.762023 34.289062 18.275391 C 34.378799 17.71058 34.493493 17.149417 34.621094 16.589844 A 1.50015 1.50015 0 0 0 35.75 13.863281 L 35.46875 13.675781 C 35.52233 13.524959 35.570539 13.372566 35.626953 13.222656 C 35.785863 12.80104 35.95767 12.384586 36.138672 11.970703 A 1.50015 1.50015 0 0 0 37.466797 9.3535156 C 37.634071 9.0643747 37.80192 8.775102 37.980469 8.4921875 L 37.980469 8.4902344 C 38.159743 8.2045208 38.347911 7.9280944 38.537109 7.6523438 L 38.599609 7.6992188 A 1.50015 1.50015 0 1 0 40.400391 5.3007812 L 40.367188 5.2773438 C 40.663885 4.9322903 40.971821 4.5879829 41.292969 4.2421875 L 41.294922 4.2402344 L 41.296875 4.2402344 C 42.162484 3.3015226 42.187751 1.8242819 41.314453 0.86132812 C 40.854764 0.35368617 40.225281 0.080585955 39.583984 0.048828125 C 38.942687 0.017070305 38.290805 0.22784706 37.783203 0.6875 L 37.779297 0.68945312 L 37.769531 0.69921875 C 37.251876 1.1682532 36.736718 1.6710316 36.226562 2.1875 A 1.50015 1.50015 0 0 0 35.419922 1.9882812 A 1.50015 1.50015 0 0 0 34.261719 4.3535156 C 33.988735 4.6843467 33.717468 5.0171265 33.460938 5.359375 C 33.28642 5.5897802 33.123348 5.8291277 32.955078 6.0644531 A 1.50015 1.50015 0 0 0 32.419922 5.9882812 A 1.50015 1.50015 0 0 0 31.376953 8.4980469 C 31.032737 9.0863401 30.707029 9.6861293 30.400391 10.296875 L 30.332031 10.251953 A 1.50015 1.50015 0 0 0 29.486328 9.9882812 A 1.50015 1.50015 0 0 0 28.667969 12.748047 L 29.166016 13.080078 C 28.747355 14.159194 28.384829 15.262218 28.083984 16.384766 C 27.093509 16.142407 26.064032 16 25 16 C 23.935968 16 22.906491 16.142407 21.916016 16.384766 C 21.615162 15.262279 21.252647 14.159184 20.833984 13.080078 L 21.332031 12.748047 A 1.50015 1.50015 0 0 0 20.46875 9.9882812 A 1.50015 1.50015 0 0 0 19.667969 10.251953 L 19.599609 10.296875 C 19.293117 9.6864194 18.969035 9.0860719 18.625 8.4980469 A 1.50015 1.50015 0 0 0 17.535156 5.9863281 A 1.50015 1.50015 0 0 0 17.044922 6.0644531 C 16.876652 5.8291277 16.71358 5.5897802 16.539062 5.359375 L 16.535156 5.3554688 C 16.279925 5.0151087 16.009747 4.6845678 15.738281 4.3554688 A 1.50015 1.50015 0 0 0 14.535156 1.9863281 A 1.50015 1.50015 0 0 0 13.771484 2.1875 C 13.261721 1.671297 12.747807 1.1679578 12.230469 0.69921875 L 12.220703 0.68945312 L 12.216797 0.6875 C 11.709223 0.22784731 11.057313 0.017070305 10.416016 0.048828125 z M 10.513672 2.0351562 C 10.639747 2.0288699 10.768603 2.0735748 10.875 2.1699219 L 10.884766 2.1777344 L 10.888672 2.1816406 C 11.312373 2.565539 11.734756 2.970407 12.152344 3.3867188 L 11.232422 4.0761719 C 10.891619 3.676565 10.540426 3.2795806 10.173828 2.8847656 L 10.173828 2.8828125 C 9.9988988 2.6915012 9.9878281 2.4015582 10.166016 2.2050781 L 10.167969 2.2050781 C 10.264256 2.0987201 10.387597 2.0414426 10.513672 2.0351562 z M 39.486328 2.0351562 C 39.612409 2.0414425 39.73572 2.0987202 39.832031 2.2050781 L 39.833984 2.2050781 C 40.012171 2.4015582 40.001089 2.6915043 39.826172 2.8828125 C 39.826172 2.8828125 39.826172 2.8847656 39.826172 2.8847656 C 39.459457 3.2797064 39.108535 3.6764762 38.767578 4.0761719 L 37.847656 3.3867188 C 38.265244 2.970407 38.687627 2.565539 39.111328 2.1816406 L 39.115234 2.1777344 L 39.125 2.1699219 C 39.231397 2.0735748 39.360247 2.02887 39.486328 2.0351562 z M 14.183594 5.6113281 C 14.442463 5.9245117 14.698817 6.2395036 14.939453 6.5605469 L 14.939453 6.5625 L 14.941406 6.5644531 C 15.099079 6.7725456 15.246161 6.9887405 15.398438 7.2011719 L 14.140625 8.1445312 C 13.999177 7.9047694 13.861666 7.663522 13.712891 7.4277344 L 13.710938 7.4257812 C 13.50201 7.0928725 13.283537 6.7710093 13.0625 6.4511719 L 14.183594 5.6113281 z M 35.816406 5.6113281 L 36.9375 6.453125 C 36.716303 6.7731637 36.496153 7.0945769 36.287109 7.4277344 C 36.138334 7.663522 36.000823 7.9047694 35.859375 8.1445312 L 34.601562 7.2011719 C 34.753839 6.9887405 34.900921 6.7725456 35.058594 6.5644531 L 35.060547 6.5625 L 35.060547 6.5605469 C 35.301183 6.2395036 35.557537 5.9245117 35.816406 5.6113281 z M 17.025391 9.7304688 C 17.341689 10.281664 17.642576 10.842314 17.923828 11.414062 L 16.248047 12.53125 C 16.246381 12.526815 16.245809 12.522012 16.244141 12.517578 C 16.030873 11.951739 15.792915 11.394281 15.542969 10.841797 L 17.025391 9.7304688 z M 32.974609 9.7304688 L 34.457031 10.841797 C 34.207085 11.394281 33.969127 11.951739 33.755859 12.517578 C 33.754191 12.522012 33.753619 12.526815 33.751953 12.53125 L 32.076172 11.414062 C 32.357424 10.842314 32.658311 10.281664 32.974609 9.7304688 z M 19.128906 14.216797 C 19.467127 15.127757 19.760406 16.057131 20.009766 17 C 19.202365 17.337096 18.434424 17.75061 17.71875 18.236328 C 17.706036 18.14835 17.701063 18.060681 17.6875 17.972656 L 17.6875 17.96875 L 17.6875 17.966797 C 17.557074 17.144608 17.38251 16.327755 17.177734 15.517578 L 19.128906 14.216797 z M 30.871094 14.216797 L 32.822266 15.517578 C 32.617489 16.327761 32.442929 17.144587 32.3125 17.966797 L 32.3125 17.96875 L 32.3125 17.972656 C 32.298947 18.060617 32.293955 18.148364 32.28125 18.236328 C 31.565576 17.75061 30.797635 17.337096 29.990234 17 C 30.239603 16.057078 30.532854 15.127807 30.871094 14.216797 z M 28.570312 20.994141 A 1.50015 1.50015 0 0 0 28.025391 21.076172 C 25.215127 22.012927 23.5 22 20.5 22 A 1.50015 1.50015 0 1 0 20.5 25 C 23.5 25 25.784873 24.98707 28.974609 23.923828 A 1.50015 1.50015 0 0 0 28.570312 20.994141 z M 25 27 C 20.57185 27 17.035156 30.856049 17.035156 35.5 C 17.035156 40.143951 20.57185 44 25 44 C 29.42815 44 32.964844 40.143951 32.964844 35.5 C 32.964844 30.856049 29.42815 27 25 27 z M 19.275391 34 L 22.769531 34 A 3 3 0 0 0 25 39 A 3 3 0 0 0 27.234375 34 L 30.724609 34 C 30.854252 34.480421 30.964844 34.97016 30.964844 35.5 C 30.964844 39.14032 28.264078 42 25 42 C 21.735922 42 19.035156 39.14032 19.035156 35.5 C 19.035156 34.97016 19.145748 34.480421 19.275391 34 z M 18.298828 43.525391 A 1.0001 1.0001 0 0 0 17.382812 44.917969 C 17.382812 44.917969 17.514573 45.251778 17.480469 45.708984 C 17.446359 46.166191 17.328945 46.64561 16.492188 47.138672 A 1.0001 1.0001 0 1 0 17.507812 48.861328 C 18.047044 48.543585 18.369236 48.127599 18.671875 47.714844 C 20.586344 49.115713 22.840695 50 25.242188 50 L 27.337891 50 C 28.546066 50 29.747729 49.805241 30.894531 49.421875 A 1.0001 1.0001 0 1 0 30.259766 47.525391 C 29.318568 47.840025 28.331715 48 27.337891 48 L 25.242188 48 C 23.117444 48 21.099741 47.219716 19.462891 45.896484 C 19.463891 45.884554 19.473729 45.869252 19.474609 45.857422 C 19.545499 44.907128 19.232422 44.158203 19.232422 44.158203 A 1.0001 1.0001 0 0 0 18.298828 43.525391 z"/></svg>